<?xml version="1.0" encoding="UTF-8"?>
<svg id="Layer_1" data-name="Layer 1" xmlns="http://www.w3.org/2000/svg" xmlns:xlink="http://www.w3.org/1999/xlink" viewBox="0 0 100 100">
  <defs>
    <style>
      .cls-1 {
        fill: url(#New_Gradient_Swatch_3);
      }
    </style>
    <linearGradient id="New_Gradient_Swatch_3" data-name="New Gradient Swatch 3" x1="5" y1="50" x2="95" y2="50" gradientUnits="userSpaceOnUse">
      <stop offset="0" stop-color="#b37e10"/>
      <stop offset=".22" stop-color="#e3c15b"/>
      <stop offset=".33" stop-color="#f8dd7b"/>
      <stop offset=".52" stop-color="#fdf1a4"/>
      <stop offset=".73" stop-color="#f8dd7b"/>
      <stop offset="1" stop-color="#b37e10"/>
    </linearGradient>
  </defs>
  <path class="cls-1" d="M49.59,80.57c-1.94,0-4.13-.21-6.56-.64-2.43-.43-4.85-.95-7.27-1.57-2.42-.61-4.58-1.19-6.5-1.74-4.46,1.97-9.4,2.96-14.84,2.96-3.23,0-5.61-.37-7.14-1.11-1.53-.74-2.29-1.54-2.29-2.4,0-1.34,.89-2.41,2.66-3.19,1.77-.79,4.09-1.18,6.95-1.18,2.14,0,4.34,.26,6.58,.77,2.24,.51,4.72,1.26,7.44,2.23,2.2-1.43,4.49-3.44,6.86-6.02,2.37-2.59,5.06-5.92,8.06-10.01-5.92-.2-10.68-1.49-14.28-3.88-3.6-2.39-5.4-5.44-5.4-9.15,0-2.46,.79-4.85,2.38-7.18,1.59-2.33,3.66-4.25,6.22-5.77,2.56-1.51,5.31-2.27,8.25-2.27,.49,0,.76,.06,.84,.19,.07,.13,.11,.24,.11,.32,0,.14-.06,.25-.17,.32-.11,.07-.51,.14-1.2,.19-2.94,.29-5.4,1.12-7.35,2.51-1.96,1.39-3.42,3.04-4.4,4.95-.97,1.92-1.46,3.82-1.46,5.7,0,4.4,1.57,7.63,4.72,9.67,3.14,2.04,7.36,3.09,12.65,3.15,.91-1.26,1.85-2.59,2.81-3.99,.96-1.4,1.97-2.89,3.02-4.46,4.77-7.12,9.24-12.84,13.4-17.17,4.16-4.33,8.21-7.47,12.16-9.43,3.94-1.96,7.96-2.94,12.05-2.94,2.12,0,3.83,.47,5.15,1.41,1.31,.94,1.97,2.2,1.97,3.77,0,2.4-.92,5-2.77,7.8-1.84,2.8-4.33,5.59-7.46,8.36-3.13,2.77-6.65,5.37-10.57,7.8-3.92,2.43-7.96,4.5-12.13,6.2-4.17,1.7-8.2,2.85-12.09,3.45-3.12,4.17-6.2,7.7-9.26,10.57-3.06,2.87-6.22,5.17-9.48,6.88,2.46,.89,5.21,1.57,8.25,2.06,3.04,.49,6.51,.73,10.4,.73,3.2,0,5.77-.31,7.72-.92,1.94-.61,3.41-1.28,4.39-1.99,.99-.71,1.62-1.21,1.91-1.5,.43-.43,.71-.49,.86-.17,.09,.2,.05,.45-.11,.75-.16,.3-.35,.56-.58,.79-2.32,2.09-4.69,3.47-7.12,4.14-2.43,.67-4.89,1.01-7.37,1.01Zm-35.76-2.02c2.46,0,4.72-.19,6.77-.56,2.06-.37,4.09-1.09,6.09-2.14-1.92-.54-3.92-1.01-6.02-1.39-2.1-.39-4.01-.58-5.72-.58-5.83,0-8.75,.71-8.75,2.14,0,.46,.68,.99,2.04,1.61,1.36,.61,3.22,.92,5.6,.92Zm37.17-21.7c3.77-.66,7.6-1.83,11.49-3.52,3.89-1.69,7.6-3.7,11.13-6.05,3.53-2.34,6.69-4.85,9.48-7.5,2.79-2.66,4.99-5.32,6.6-7.98,1.61-2.66,2.42-5.15,2.42-7.46,0-1-.43-1.91-1.29-2.72-.86-.81-1.93-1.22-3.22-1.22-4.6,0-9.14,1.85-13.61,5.55-4.47,3.7-8.81,8.97-13.01,15.8-1.74,2.86-3.45,5.55-5.1,8.06-1.66,2.52-3.29,4.86-4.89,7.03Z"/>
</svg>