<?xml version="1.0" encoding="UTF-8"?>
<svg id="Layer_1" data-name="Layer 1" xmlns="http://www.w3.org/2000/svg" xmlns:xlink="http://www.w3.org/1999/xlink" viewBox="0 0 100 100">
  <defs>
    <style>
      .cls-1 {
        fill: #333;
      }

      .cls-2 {
        fill: url(#New_Gradient_Swatch_3);
      }
    </style>
    <linearGradient id="New_Gradient_Swatch_3" data-name="New Gradient Swatch 3" x1="-154.22" y1="4.28" x2="119.91" y2="65.65" gradientUnits="userSpaceOnUse">
      <stop offset="0" stop-color="#b37e10"/>
      <stop offset=".22" stop-color="#e3c15b"/>
      <stop offset=".33" stop-color="#f8dd7b"/>
      <stop offset=".52" stop-color="#fdf1a4"/>
      <stop offset=".73" stop-color="#f8dd7b"/>
      <stop offset="1" stop-color="#b37e10"/>
    </linearGradient>
  </defs>
  <rect class="cls-1" width="100" height="100"/>
  <path class="cls-2" d="M5,24.19c3.49-.82,6.8-.68,10.24-.61-.68-3.45-1.97-6.69-1.93-10.17,13.73,.68,32.37,11.56,36.62,34.12,4.82-19.69,16.84-31.1,36.73-34.45,.33,3.78-1.2,6.96-1.95,10.39,3.35,.16,6.62,.31,9.89,.47,0,3.7-5.59,12.1-11.05,16.91-5.19,4.57-11.24,7.51-17.99,9.32,6.64,1.89,12.68,4.78,17.84,9.34,5.17,4.56,9.1,9.97,11.6,16.87-3.58,.13-6.8,.84-10.31,.26,.63,3.49,2.15,6.61,2.05,10.02-4.87,1.31-17.53-4.36-23.95-10.4-6.73-6.33-10.83-14.05-12.76-23.03-4.3,21.95-22.68,33.01-36.68,33.69-.13-3.49,1.3-6.69,1.87-9.96-3.4-.15-6.67-.29-9.93-.43-.02-2.88,5.36-11.96,11.1-16.92,4.73-4.09,10.29-7.1,18.38-9.41-4.69-1.4-8.95-2.85-12.8-5.23-3.87-2.39-7.25-5.37-10.13-8.88-2.91-3.55-5.26-7.41-6.84-11.89Zm78.79,51.86c-.34-.88-.6-1.59-.89-2.29-.21-.51-.45-1.02-.72-1.5-6.49-11.77-16.34-18.92-29.53-21.47-.63-.12-1.3-.02-2.04-.02,4.56,13.48,19.19,24.49,33.17,25.28Zm-.21-51.63c-11.92,.4-27.9,10.34-32.83,24.93,11.86,.34,28.63-11.07,32.83-24.93ZM16.4,75.95c14.59-.48,29.51-13.35,32.81-24.96-11.53-.02-27.86,10.36-32.81,24.96Zm0-51.58c4.66,14.02,20.18,24.71,32.73,25.07-2.53-10.25-16.4-23.9-32.73-25.07Z"/>
</svg>